<svg xmlns="http://www.w3.org/2000/svg" xmlns:xlink="http://www.w3.org/1999/xlink" xmlns:lucid="lucid" width="1760" height="447"><g transform="translate(0 0)" lucid:page-tab-id="0_0"><path d="M0 0h1760v1360H0z" fill="#fff"/><path d="M440 57.16a8 8 0 0 1 8-8h836.75a8 8 0 0 1 8 8V82.3a8 8 0 0 1-8 8H448a8 8 0 0 1-8-8z" stroke="#000" stroke-opacity="0" stroke-width="2" fill="#fff" fill-opacity="0"/><use xlink:href="#a" transform="matrix(1,0,0,1,444,53.15522395661521) translate(290.54703703703706 25.782777777777778)"/><use xlink:href="#b" transform="matrix(1,0,0,1,444,53.15522395661521) translate(415.6124691358025 25.782777777777778)"/><use xlink:href="#c" transform="matrix(1,0,0,1,444,53.15522395661521) translate(459.24333333333334 25.782777777777778)"/><path d="M615.5 88.97h505.85M615.5 88.97h-1M1121.32 88.97h1.03" stroke="#a9afb8" stroke-width="2" fill="none"/><path d="M453.15 98.3a8 8 0 0 1 8-8h837.7a8 8 0 0 1 8 8v2.86a8 8 0 0 1-8 8h-837.7a8 8 0 0 1-8-8z" stroke="#000" stroke-opacity="0" stroke-width="2" fill="#fff" fill-opacity="0"/><use xlink:href="#d" transform="matrix(1,0,0,1,457.1465527853434,94.31044791351403) translate(292.78608024691357 14.917037037037037)"/><use xlink:href="#e" transform="matrix(1,0,0,1,457.1465527853434,94.31044791351403) translate(341.1393724279835 14.917037037037037)"/><use xlink:href="#f" transform="matrix(1,0,0,1,457.1465527853434,94.31044791351403) translate(408.9529526748971 14.917037037037037)"/><use xlink:href="#g" transform="matrix(1,0,0,1,457.1465527853434,94.31044791351403) translate(421.4024382716049 14.917037037037037)"/><use xlink:href="#h" transform="matrix(1,0,0,1,457.1465527853434,94.31044791351403) translate(500.3483230452675 14.917037037037037)"/><use xlink:href="#i" transform="matrix(1,0,0,1,457.1465527853434,94.31044791351403) translate(525.8421502057613 14.917037037037037)"/><path d="M40 165a5 5 0 0 1 5-5h294.73a5 5 0 0 1 5 5v254a5 5 0 0 1-5 5H45a5 5 0 0 1-5-5z" fill="#fff"/><path d="M40 200v-35a5 5 0 0 1 5-5h294.73a5 5 0 0 1 5 5v35" fill="#ced4db"/><path d="M40 165a5 5 0 0 1 5-5h294.73a5 5 0 0 1 5 5v254a5 5 0 0 1-5 5H45a5 5 0 0 1-5-5zM40 200h304.73M100 200v224" stroke="#000" fill="none"/><use xlink:href="#j" transform="matrix(1,0,0,1,50,159.99999999999997) translate(0 24.488888888888887)"/><use xlink:href="#k" transform="matrix(1,0,0,1,45,202.5) translate(13 17.1)"/><use xlink:href="#l" transform="matrix(1,0,0,1,105,202.49999999999997) translate(0 17.1)"/><use xlink:href="#m" transform="matrix(1,0,0,1,105,234.49999999999997) translate(0 17.1)"/><use xlink:href="#n" transform="matrix(1,0,0,1,105,266.5) translate(0 17.1)"/><use xlink:href="#o" transform="matrix(1,0,0,1,105,298.5) translate(0 17.1)"/><use xlink:href="#p" transform="matrix(1,0,0,1,105,330.5) translate(0 17.1)"/><use xlink:href="#q" transform="matrix(1,0,0,1,105,362.5) translate(0 17.1)"/><use xlink:href="#r" transform="matrix(1,0,0,1,105,394.5) translate(0 17.1)"/><path d="M954.18 165a5 5 0 0 1 5-5h294.73a5 5 0 0 1 5 5v190a5 5 0 0 1-5 5H959.2a5 5 0 0 1-5-5z" fill="#fff"/><path d="M954.18 200v-35a5 5 0 0 1 5-5h294.73a5 5 0 0 1 5 5v35" fill="#ced4db"/><path d="M954.18 165a5 5 0 0 1 5-5h294.73a5 5 0 0 1 5 5v190a5 5 0 0 1-5 5H959.2a5 5 0 0 1-5-5zM954.18 200h304.73M1014.18 200v160" stroke="#000" fill="none"/><use xlink:href="#s" transform="matrix(1,0,0,1,964.1818181818181,160) translate(0 24.488888888888887)"/><use xlink:href="#k" transform="matrix(1,0,0,1,959.1818181818181,202.5) translate(13 17.1)"/><use xlink:href="#t" transform="matrix(1,0,0,1,1019.1818181818181,202.5) translate(0 17.1)"/><use xlink:href="#u" transform="matrix(1,0,0,1,1019.1818181818181,234.5) translate(0 17.1)"/><use xlink:href="#v" transform="matrix(1,0,0,1,1019.1818181818181,266.5) translate(0 17.1)"/><use xlink:href="#w" transform="matrix(1,0,0,1,1019.1818181818181,298.5) translate(0 17.1)"/><use xlink:href="#x" transform="matrix(1,0,0,1,1019.1818181818181,330.5) translate(0 17.1)"/><path d="M497.1 165a5 5 0 0 1 5-5H796.8a5 5 0 0 1 5 5v94a5 5 0 0 1-5 5H502.1a5 5 0 0 1-5-5z" fill="#fff"/><path d="M497.1 200v-35a5 5 0 0 1 5-5H796.8a5 5 0 0 1 5 5v35" fill="#ced4db"/><path d="M497.1 165a5 5 0 0 1 5-5H796.8a5 5 0 0 1 5 5v94a5 5 0 0 1-5 5H502.1a5 5 0 0 1-5-5zM497.1 200H801.8M557.1 200v64" stroke="#000" fill="none"/><use xlink:href="#y" transform="matrix(1,0,0,1,507.0909090909091,160) translate(0 24.488888888888887)"/><use xlink:href="#k" transform="matrix(1,0,0,1,502.0909090909091,202.5) translate(13 17.1)"/><use xlink:href="#l" transform="matrix(1,0,0,1,562.0909090909091,202.5) translate(0 17.1)"/><use xlink:href="#k" transform="matrix(1,0,0,1,502.0909090909091,234.5) translate(13 17.1)"/><use xlink:href="#t" transform="matrix(1,0,0,1,562.0909090909091,234.5) translate(0 17.1)"/><path d="M365.23 216.02h55.67l.02-.02h56.26" stroke="#3a414a" fill="none"/><path d="M365.23 226.02v-20M345.23 216.02h20" stroke="#3a414a" fill="#fff"/><path d="M496.37 226l-20-10 20-10" stroke="#3a414a" fill="#fff" fill-opacity="0"/><path d="M496.37 216h-20" stroke="#3a414a" fill="#fff"/><path d="M933.68 216H890a12 12 0 0 0-12 12v8a12 12 0 0 1-12 12h-44.27" stroke="#3a414a" fill="none"/><path d="M933.68 206v20M953.68 216h-20" stroke="#3a414a" fill="#fff"/><path d="M802.54 238l20 10-20 10" stroke="#3a414a" fill="#fff" fill-opacity="0"/><path d="M802.54 248h20" stroke="#3a414a" fill="#fff"/><path d="M1411.27 165a5 5 0 0 1 5-5H1711a5 5 0 0 1 5 5v126a5 5 0 0 1-5 5h-294.73a5 5 0 0 1-5-5z" fill="#fff"/><path d="M1411.27 200v-35a5 5 0 0 1 5-5H1711a5 5 0 0 1 5 5v35" fill="#ced4db"/><path d="M1411.27 165a5 5 0 0 1 5-5H1711a5 5 0 0 1 5 5v126a5 5 0 0 1-5 5h-294.73a5 5 0 0 1-5-5zM1411.27 200H1716M1471.27 200v96" stroke="#000" fill="none"/><use xlink:href="#z" transform="matrix(1,0,0,1,1421.272727272727,160) translate(0 24.488888888888887)"/><use xlink:href="#k" transform="matrix(1,0,0,1,1416.272727272727,202.5) translate(13 17.1)"/><use xlink:href="#t" transform="matrix(1,0,0,1,1476.272727272727,202.5) translate(0 17.1)"/><use xlink:href="#k" transform="matrix(1,0,0,1,1416.272727272727,234.5) translate(13 17.1)"/><use xlink:href="#A" transform="matrix(1,0,0,1,1476.272727272727,234.5) translate(0 17.1)"/><use xlink:href="#B" transform="matrix(1,0,0,1,1476.272727272727,266.5) translate(0 17.1)"/><path d="M1279.4 216H1391.37" stroke="#3a414a" fill="none"/><path d="M1279.4 226v-20M1259.4 216h20" stroke="#3a414a" fill="#fff"/><path d="M1410.55 226l-20-10 20-10" stroke="#3a414a" fill="#fff" fill-opacity="0"/><path d="M1410.55 216h-20" stroke="#3a414a" fill="#fff"/><path d="M1279.4 216h43.7a12 12 0 0 1 12 12v8a12 12 0 0 0 12 12h44.26" stroke="#3a414a" fill="none"/><path d="M1279.4 226v-20M1259.4 216h20" stroke="#3a414a" fill="#fff"/><path d="M1410.55 258l-20-10 20-10" stroke="#3a414a" fill="#fff" fill-opacity="0"/><path d="M1410.55 248h-20" stroke="#3a414a" fill="#fff"/><defs><path fill="#a9afb8" d="M76-208v77h127v40H76V0H24v-248h183v40H76" id="C"/><path fill="#a9afb8" d="M25-224v-37h50v37H25zM25 0v-190h50V0H25" id="D"/><path fill="#a9afb8" d="M25 0v-261h50V0H25" id="E"/><path fill="#a9afb8" d="M220-157c-53 9-28 100-34 157h-49v-107c1-27-5-49-29-50C55-147 81-57 75 0H25l-1-190h47c2 12-1 28 3 38 10-53 101-56 108 0 13-22 24-43 59-42 82 1 51 116 57 194h-49v-107c-1-25-5-48-29-50" id="F"/><path fill="#a9afb8" d="M110-194c64 0 96 36 96 99 0 64-35 99-97 99-61 0-95-36-95-99 0-62 34-99 96-99zm-1 164c35 0 45-28 45-65 0-40-10-65-43-65-34 0-45 26-45 65 0 36 10 65 43 65" id="G"/><path fill="#a9afb8" d="M135-150c-39-12-60 13-60 57V0H25l-1-190h47c2 13-1 29 3 40 6-28 27-53 61-41v41" id="H"/><path fill="#a9afb8" d="M133-34C117-15 103 5 69 4 32 3 11-16 11-54c-1-60 55-63 116-61 1-26-3-47-28-47-18 1-26 9-28 27l-52-2c7-38 36-58 82-57s74 22 75 68l1 82c-1 14 12 18 25 15v27c-30 8-71 5-69-32zm-48 3c29 0 43-24 42-57-32 0-66-3-65 30 0 17 8 27 23 27" id="I"/><path fill="#a9afb8" d="M115-3C79 11 28 4 28-45v-112H4v-33h27l15-45h31v45h36v33H77v99c-1 23 16 31 38 25v30" id="J"/><path fill="#a9afb8" d="M185-48c-13 30-37 53-82 52C43 2 14-33 14-96s30-98 90-98c62 0 83 45 84 108H66c0 31 8 55 39 56 18 0 30-7 34-22zm-45-69c5-46-57-63-70-21-2 6-4 13-4 21h74" id="K"/><g id="a"><use transform="matrix(0.0728395061728395,0,0,0.0728395061728395,0,0)" xlink:href="#C"/><use transform="matrix(0.0728395061728395,0,0,0.0728395061728395,15.95185185185185,0)" xlink:href="#D"/><use transform="matrix(0.0728395061728395,0,0,0.0728395061728395,23.235802469135802,0)" xlink:href="#E"/><use transform="matrix(0.0728395061728395,0,0,0.0728395061728395,30.51975308641975,0)" xlink:href="#F"/><use transform="matrix(0.0728395061728395,0,0,0.0728395061728395,53.82839506172839,0)" xlink:href="#G"/><use transform="matrix(0.0728395061728395,0,0,0.0728395061728395,69.78024691358024,0)" xlink:href="#H"/><use transform="matrix(0.0728395061728395,0,0,0.0728395061728395,79.97777777777777,0)" xlink:href="#I"/><use transform="matrix(0.0728395061728395,0,0,0.0728395061728395,94.54567901234567,0)" xlink:href="#J"/><use transform="matrix(0.0728395061728395,0,0,0.0728395061728395,103.21358024691358,0)" xlink:href="#K"/></g><path fill="#a9afb8" d="M24 0v-248h195v40H76v63h132v40H76v65h150V0H24" id="L"/><path fill="#a9afb8" d="M240-174c0 40-23 61-54 70L253 0h-59l-57-94H76V0H24v-248c93 4 217-23 216 74zM76-134c48-2 112 12 112-38 0-48-66-32-112-35v73" id="M"/><g id="b"><use transform="matrix(0.0728395061728395,0,0,0.0728395061728395,0,0)" xlink:href="#L"/><use transform="matrix(0.0728395061728395,0,0,0.0728395061728395,17.48148148148148,0)" xlink:href="#M"/></g><path fill="#a9afb8" d="M88-194c31-1 46 15 58 34l-1-101h50l1 261h-48c-2-10 0-23-3-31C134-8 116 4 84 4 32 4 16-41 15-95c0-56 19-97 73-99zm17 164c33 0 40-30 41-66 1-37-9-64-41-64s-38 30-39 65c0 43 13 65 39 65" id="N"/><path fill="#a9afb8" d="M195-6C206 82 75 100 31 46c-4-6-6-13-8-21l49-6c3 16 16 24 34 25 40 0 42-37 40-79-11 22-30 35-61 35-53 0-70-43-70-97 0-56 18-96 73-97 30 0 46 14 59 34l2-30h47zm-90-29c32 0 41-27 41-63 0-35-9-62-40-62-32 0-39 29-40 63 0 36 9 62 39 62" id="O"/><g id="c"><use transform="matrix(0.0728395061728395,0,0,0.0728395061728395,0,0)" xlink:href="#N"/><use transform="matrix(0.0728395061728395,0,0,0.0728395061728395,15.95185185185185,0)" xlink:href="#D"/><use transform="matrix(0.0728395061728395,0,0,0.0728395061728395,23.235802469135802,0)" xlink:href="#I"/><use transform="matrix(0.0728395061728395,0,0,0.0728395061728395,37.803703703703704,0)" xlink:href="#O"/><use transform="matrix(0.0728395061728395,0,0,0.0728395061728395,53.75555555555555,0)" xlink:href="#H"/><use transform="matrix(0.0728395061728395,0,0,0.0728395061728395,63.953086419753085,0)" xlink:href="#I"/><use transform="matrix(0.0728395061728395,0,0,0.0728395061728395,78.52098765432099,0)" xlink:href="#F"/></g><path fill="#a9afb8" d="M205 0l-28-72H64L36 0H1l101-248h38L239 0h-34zm-38-99l-47-123c-12 45-31 82-46 123h93" id="P"/><path fill="#a9afb8" d="M117-194c89-4 53 116 60 194h-32v-121c0-31-8-49-39-48C34-167 62-67 57 0H25l-1-190h30c1 10-1 24 2 32 11-22 29-35 61-36" id="Q"/><path fill="#a9afb8" d="M85-194c31 0 48 13 60 33l-1-100h32l1 261h-30c-2-10 0-23-3-31C134-8 116 4 85 4 32 4 16-35 15-94c0-66 23-100 70-100zm9 24c-40 0-46 34-46 75 0 40 6 74 45 74 42 0 51-32 51-76 0-42-9-74-50-73" id="R"/><path fill="#a9afb8" d="M114-163C36-179 61-72 57 0H25l-1-190h30c1 12-1 29 2 39 6-27 23-49 58-41v29" id="S"/><path fill="#a9afb8" d="M100-194c63 0 86 42 84 106H49c0 40 14 67 53 68 26 1 43-12 49-29l28 8c-11 28-37 45-77 45C44 4 14-33 15-96c1-61 26-98 85-98zm52 81c6-60-76-77-97-28-3 7-6 17-6 28h103" id="T"/><path fill="#a9afb8" d="M24-231v-30h32v30H24zM24 0v-190h32V0H24" id="U"/><g id="d"><use transform="matrix(0.04248971193415638,0,0,0.04248971193415638,0,0)" xlink:href="#P"/><use transform="matrix(0.04248971193415638,0,0,0.04248971193415638,10.19753086419753,0)" xlink:href="#Q"/><use transform="matrix(0.04248971193415638,0,0,0.04248971193415638,18.695473251028805,0)" xlink:href="#R"/><use transform="matrix(0.04248971193415638,0,0,0.04248971193415638,27.193415637860078,0)" xlink:href="#S"/><use transform="matrix(0.04248971193415638,0,0,0.04248971193415638,32.249691358024684,0)" xlink:href="#T"/><use transform="matrix(0.04248971193415638,0,0,0.04248971193415638,40.74763374485596,0)" xlink:href="#U"/></g><path fill="#a9afb8" d="M127-220V0H93v-220H8v-28h204v28h-85" id="V"/><path fill="#a9afb8" d="M141-36C126-15 110 5 73 4 37 3 15-17 15-53c-1-64 63-63 125-63 3-35-9-54-41-54-24 1-41 7-42 31l-33-3c5-37 33-52 76-52 45 0 72 20 72 64v82c-1 20 7 32 28 27v20c-31 9-61-2-59-35zM48-53c0 20 12 33 32 33 41-3 63-29 60-74-43 2-92-5-92 41" id="W"/><path fill="#a9afb8" d="M59-47c-2 24 18 29 38 22v24C64 9 27 4 27-40v-127H5v-23h24l9-43h21v43h35v23H59v120" id="X"/><path fill="#a9afb8" d="M100-194c62-1 85 37 85 99 1 63-27 99-86 99S16-35 15-95c0-66 28-99 85-99zM99-20c44 1 53-31 53-75 0-43-8-75-51-75s-53 32-53 75 10 74 51 75" id="Y"/><g id="e"><use transform="matrix(0.04248971193415638,0,0,0.04248971193415638,0,0)" xlink:href="#V"/><use transform="matrix(0.04248971193415638,0,0,0.04248971193415638,7.605658436213991,0)" xlink:href="#W"/><use transform="matrix(0.04248971193415638,0,0,0.04248971193415638,16.103600823045266,0)" xlink:href="#S"/><use transform="matrix(0.04248971193415638,0,0,0.04248971193415638,21.159876543209876,0)" xlink:href="#W"/><use transform="matrix(0.04248971193415638,0,0,0.04248971193415638,29.657818930041152,0)" xlink:href="#X"/><use transform="matrix(0.04248971193415638,0,0,0.04248971193415638,33.90679012345679,0)" xlink:href="#Y"/><use transform="matrix(0.04248971193415638,0,0,0.04248971193415638,42.40473251028806,0)" xlink:href="#S"/><use transform="matrix(0.04248971193415638,0,0,0.04248971193415638,47.46100823045267,0)" xlink:href="#U"/><use transform="matrix(0.04248971193415638,0,0,0.04248971193415638,50.817695473251014,0)" xlink:href="#Q"/></g><path fill="#a9afb8" d="M32 76v-337h29V76H32" id="Z"/><use transform="matrix(0.04248971193415638,0,0,0.04248971193415638,0,0)" xlink:href="#Z" id="f"/><path fill="#a9afb8" d="M185-189c-5-48-123-54-124 2 14 75 158 14 163 119 3 78-121 87-175 55-17-10-28-26-33-46l33-7c5 56 141 63 141-1 0-78-155-14-162-118-5-82 145-84 179-34 5 7 8 16 11 25" id="aa"/><path fill="#a9afb8" d="M115-194c55 1 70 41 70 98S169 2 115 4C84 4 66-9 55-30l1 105H24l-1-265h31l2 30c10-21 28-34 59-34zm-8 174c40 0 45-34 45-75s-6-73-45-74c-42 0-51 32-51 76 0 43 10 73 51 73" id="ab"/><path fill="#a9afb8" d="M210-169c-67 3-38 105-44 169h-31v-121c0-29-5-50-35-48C34-165 62-65 56 0H25l-1-190h30c1 10-1 24 2 32 10-44 99-50 107 0 11-21 27-35 58-36 85-2 47 119 55 194h-31v-121c0-29-5-49-35-48" id="ac"/><path fill="#a9afb8" d="M115-194c53 0 69 39 70 98 0 66-23 100-70 100C84 3 66-7 56-30L54 0H23l1-261h32v101c10-23 28-34 59-34zm-8 174c40 0 45-34 45-75 0-40-5-75-45-74-42 0-51 32-51 76 0 43 10 73 51 73" id="ad"/><g id="g"><use transform="matrix(0.04248971193415638,0,0,0.04248971193415638,0,0)" xlink:href="#aa"/><use transform="matrix(0.04248971193415638,0,0,0.04248971193415638,10.19753086419753,0)" xlink:href="#T"/><use transform="matrix(0.04248971193415638,0,0,0.04248971193415638,18.695473251028805,0)" xlink:href="#ab"/><use transform="matrix(0.04248971193415638,0,0,0.04248971193415638,27.193415637860078,0)" xlink:href="#X"/><use transform="matrix(0.04248971193415638,0,0,0.04248971193415638,31.442386831275712,0)" xlink:href="#T"/><use transform="matrix(0.04248971193415638,0,0,0.04248971193415638,39.94032921810699,0)" xlink:href="#ac"/><use transform="matrix(0.04248971193415638,0,0,0.04248971193415638,52.64475308641975,0)" xlink:href="#ad"/><use transform="matrix(0.04248971193415638,0,0,0.04248971193415638,61.142695473251024,0)" xlink:href="#T"/><use transform="matrix(0.04248971193415638,0,0,0.04248971193415638,69.6406378600823,0)" xlink:href="#S"/></g><path fill="#a9afb8" d="M101-251c82-7 93 87 43 132L82-64C71-53 59-42 53-27h129V0H18c2-99 128-94 128-182 0-28-16-43-45-43s-46 15-49 41l-32-3c6-41 34-60 81-64" id="ae"/><path fill="#a9afb8" d="M126-127c33 6 58 20 58 59 0 88-139 92-164 29-3-8-5-16-6-25l32-3c6 27 21 44 54 44 32 0 52-15 52-46 0-38-36-46-79-43v-28c39 1 72-4 72-42 0-27-17-43-46-43-28 0-47 15-49 41l-32-3c6-42 35-63 81-64 48-1 79 21 79 65 0 36-21 52-52 59" id="af"/><path fill="#a9afb8" d="M68-38c1 34 0 65-14 84H32c9-13 17-26 17-46H33v-38h35" id="ag"/><g id="h"><use transform="matrix(0.04248971193415638,0,0,0.04248971193415638,0,0)" xlink:href="#ae"/><use transform="matrix(0.04248971193415638,0,0,0.04248971193415638,8.497942386831275,0)" xlink:href="#af"/><use transform="matrix(0.04248971193415638,0,0,0.04248971193415638,16.99588477366255,0)" xlink:href="#ag"/></g><path fill="#a9afb8" d="M101-251c68 0 85 55 85 127S166 4 100 4C33 4 14-52 14-124c0-73 17-127 87-127zm-1 229c47 0 54-49 54-102s-4-102-53-102c-51 0-55 48-55 102 0 53 5 102 54 102" id="ah"/><g id="i"><use transform="matrix(0.04248971193415638,0,0,0.04248971193415638,0,0)" xlink:href="#ae"/><use transform="matrix(0.04248971193415638,0,0,0.04248971193415638,8.497942386831275,0)" xlink:href="#ah"/><use transform="matrix(0.04248971193415638,0,0,0.04248971193415638,16.99588477366255,0)" xlink:href="#ae"/><use transform="matrix(0.04248971193415638,0,0,0.04248971193415638,25.493827160493822,0)" xlink:href="#af"/></g><path fill="#333" d="M76-208v77h127v40H76V0H24v-248h183v40H76" id="ai"/><path fill="#333" d="M25-224v-37h50v37H25zM25 0v-190h50V0H25" id="aj"/><path fill="#333" d="M25 0v-261h50V0H25" id="ak"/><path fill="#333" d="M220-157c-53 9-28 100-34 157h-49v-107c1-27-5-49-29-50C55-147 81-57 75 0H25l-1-190h47c2 12-1 28 3 38 10-53 101-56 108 0 13-22 24-43 59-42 82 1 51 116 57 194h-49v-107c-1-25-5-48-29-50" id="al"/><g id="j"><use transform="matrix(0.06234567901234567,0,0,0.06234567901234567,0,0)" xlink:href="#ai"/><use transform="matrix(0.06234567901234567,0,0,0.06234567901234567,13.653703703703702,0)" xlink:href="#aj"/><use transform="matrix(0.06234567901234567,0,0,0.06234567901234567,19.888271604938268,0)" xlink:href="#ak"/><use transform="matrix(0.06234567901234567,0,0,0.06234567901234567,26.122839506172834,0)" xlink:href="#al"/></g><path d="M30-248c87 1 191-15 191 75 0 78-77 80-158 76V0H30v-248zm33 125c57 0 124 11 124-50 0-59-68-47-124-48v98" id="am"/><path d="M194 0L95-120 63-95V0H30v-248h33v124l119-124h40L117-140 236 0h-42" id="an"/><g id="k"><use transform="matrix(0.05,0,0,0.05,0,0)" xlink:href="#am"/><use transform="matrix(0.05,0,0,0.05,12,0)" xlink:href="#an"/></g><path fill="#333" d="M101-234c-31-9-42 10-38 44h38v23H63V0H32v-167H5v-23h27c-7-52 17-82 69-68v24" id="ao"/><path fill="#333" d="M24-231v-30h32v30H24zM24 0v-190h32V0H24" id="ap"/><path fill="#333" d="M24 0v-261h32V0H24" id="aq"/><path fill="#333" d="M210-169c-67 3-38 105-44 169h-31v-121c0-29-5-50-35-48C34-165 62-65 56 0H25l-1-190h30c1 10-1 24 2 32 10-44 99-50 107 0 11-21 27-35 58-36 85-2 47 119 55 194h-31v-121c0-29-5-49-35-48" id="ar"/><path fill="#333" d="M-5 72V49h209v23H-5" id="as"/><path fill="#333" d="M85-194c31 0 48 13 60 33l-1-100h32l1 261h-30c-2-10 0-23-3-31C134-8 116 4 85 4 32 4 16-35 15-94c0-66 23-100 70-100zm9 24c-40 0-46 34-46 75 0 40 6 74 45 74 42 0 51-32 51-76 0-42-9-74-50-73" id="at"/><g id="l"><use transform="matrix(0.05,0,0,0.05,0,0)" xlink:href="#ao"/><use transform="matrix(0.05,0,0,0.05,5,0)" xlink:href="#ap"/><use transform="matrix(0.05,0,0,0.05,8.95,0)" xlink:href="#aq"/><use transform="matrix(0.05,0,0,0.05,12.899999999999999,0)" xlink:href="#ar"/><use transform="matrix(0.05,0,0,0.05,27.85,0)" xlink:href="#as"/><use transform="matrix(0.05,0,0,0.05,37.85,0)" xlink:href="#ap"/><use transform="matrix(0.05,0,0,0.05,41.800000000000004,0)" xlink:href="#at"/></g><path fill="#333" d="M59-47c-2 24 18 29 38 22v24C64 9 27 4 27-40v-127H5v-23h24l9-43h21v43h35v23H59v120" id="au"/><path fill="#333" d="M100-194c63 0 86 42 84 106H49c0 40 14 67 53 68 26 1 43-12 49-29l28 8c-11 28-37 45-77 45C44 4 14-33 15-96c1-61 26-98 85-98zm52 81c6-60-76-77-97-28-3 7-6 17-6 28h103" id="av"/><g id="m"><use transform="matrix(0.05,0,0,0.05,0,0)" xlink:href="#au"/><use transform="matrix(0.05,0,0,0.05,5,0)" xlink:href="#ap"/><use transform="matrix(0.05,0,0,0.05,8.95,0)" xlink:href="#au"/><use transform="matrix(0.05,0,0,0.05,13.949999999999998,0)" xlink:href="#aq"/><use transform="matrix(0.05,0,0,0.05,17.9,0)" xlink:href="#av"/></g><path fill="#333" d="M135-143c-3-34-86-38-87 0 15 53 115 12 119 90S17 21 10-45l28-5c4 36 97 45 98 0-10-56-113-15-118-90-4-57 82-63 122-42 12 7 21 19 24 35" id="aw"/><path fill="#333" d="M96-169c-40 0-48 33-48 73s9 75 48 75c24 0 41-14 43-38l32 2c-6 37-31 61-74 61-59 0-76-41-82-99-10-93 101-131 147-64 4 7 5 14 7 22l-32 3c-4-21-16-35-41-35" id="ax"/><path fill="#333" d="M114-163C36-179 61-72 57 0H25l-1-190h30c1 12-1 29 2 39 6-27 23-49 58-41v29" id="ay"/><path fill="#333" d="M115-194c55 1 70 41 70 98S169 2 115 4C84 4 66-9 55-30l1 105H24l-1-265h31l2 30c10-21 28-34 59-34zm-8 174c40 0 45-34 45-75s-6-73-45-74c-42 0-51 32-51 76 0 43 10 73 51 73" id="az"/><path fill="#333" d="M100-194c62-1 85 37 85 99 1 63-27 99-86 99S16-35 15-95c0-66 28-99 85-99zM99-20c44 1 53-31 53-75 0-43-8-75-51-75s-53 32-53 75 10 74 51 75" id="aA"/><path fill="#333" d="M117-194c89-4 53 116 60 194h-32v-121c0-31-8-49-39-48C34-167 62-67 57 0H25l-1-190h30c1 10-1 24 2 32 11-22 29-35 61-36" id="aB"/><g id="n"><use transform="matrix(0.05,0,0,0.05,0,0)" xlink:href="#at"/><use transform="matrix(0.05,0,0,0.05,10,0)" xlink:href="#av"/><use transform="matrix(0.05,0,0,0.05,20,0)" xlink:href="#aw"/><use transform="matrix(0.05,0,0,0.05,29,0)" xlink:href="#ax"/><use transform="matrix(0.05,0,0,0.05,38,0)" xlink:href="#ay"/><use transform="matrix(0.05,0,0,0.05,43.95,0)" xlink:href="#ap"/><use transform="matrix(0.05,0,0,0.05,47.900000000000006,0)" xlink:href="#az"/><use transform="matrix(0.05,0,0,0.05,57.900000000000006,0)" xlink:href="#au"/><use transform="matrix(0.05,0,0,0.05,62.900000000000006,0)" xlink:href="#ap"/><use transform="matrix(0.05,0,0,0.05,66.85000000000001,0)" xlink:href="#aA"/><use transform="matrix(0.05,0,0,0.05,76.85000000000001,0)" xlink:href="#aB"/></g><path fill="#333" d="M141-36C126-15 110 5 73 4 37 3 15-17 15-53c-1-64 63-63 125-63 3-35-9-54-41-54-24 1-41 7-42 31l-33-3c5-37 33-52 76-52 45 0 72 20 72 64v82c-1 20 7 32 28 27v20c-31 9-61-2-59-35zM48-53c0 20 12 33 32 33 41-3 63-29 60-74-43 2-92-5-92 41" id="aC"/><g id="o"><use transform="matrix(0.05,0,0,0.05,0,0)" xlink:href="#ay"/><use transform="matrix(0.05,0,0,0.05,5.95,0)" xlink:href="#av"/><use transform="matrix(0.05,0,0,0.05,15.949999999999998,0)" xlink:href="#aq"/><use transform="matrix(0.05,0,0,0.05,19.9,0)" xlink:href="#av"/><use transform="matrix(0.05,0,0,0.05,29.899999999999995,0)" xlink:href="#aC"/><use transform="matrix(0.05,0,0,0.05,39.9,0)" xlink:href="#aw"/><use transform="matrix(0.05,0,0,0.05,48.9,0)" xlink:href="#av"/><use transform="matrix(0.05,0,0,0.05,58.900000000000006,0)" xlink:href="#as"/><use transform="matrix(0.05,0,0,0.05,68.9,0)" xlink:href="#at"/><use transform="matrix(0.05,0,0,0.05,78.9,0)" xlink:href="#aC"/><use transform="matrix(0.05,0,0,0.05,88.9,0)" xlink:href="#au"/><use transform="matrix(0.05,0,0,0.05,93.9,0)" xlink:href="#av"/></g><path fill="#333" d="M84 4C-5 8 30-112 23-190h32v120c0 31 7 50 39 49 72-2 45-101 50-169h31l1 190h-30c-1-10 1-25-2-33-11 22-28 36-60 37" id="aD"/><g id="p"><use transform="matrix(0.05,0,0,0.05,0,0)" xlink:href="#at"/><use transform="matrix(0.05,0,0,0.05,10,0)" xlink:href="#aD"/><use transform="matrix(0.05,0,0,0.05,20,0)" xlink:href="#ay"/><use transform="matrix(0.05,0,0,0.05,25.950000000000003,0)" xlink:href="#aC"/><use transform="matrix(0.05,0,0,0.05,35.95,0)" xlink:href="#au"/><use transform="matrix(0.05,0,0,0.05,40.95,0)" xlink:href="#ap"/><use transform="matrix(0.05,0,0,0.05,44.900000000000006,0)" xlink:href="#aA"/><use transform="matrix(0.05,0,0,0.05,54.900000000000006,0)" xlink:href="#aB"/></g><path d="M177-190C167-65 218 103 67 71c-23-6-38-20-44-43l32-5c15 47 100 32 89-28v-30C133-14 115 1 83 1 29 1 15-40 15-95c0-56 16-97 71-98 29-1 48 16 59 35 1-10 0-23 2-32h30zM94-22c36 0 50-32 50-73 0-42-14-75-50-75-39 0-46 34-46 75s6 73 46 73" id="aE"/><path d="M100-194c63 0 86 42 84 106H49c0 40 14 67 53 68 26 1 43-12 49-29l28 8c-11 28-37 45-77 45C44 4 14-33 15-96c1-61 26-98 85-98zm52 81c6-60-76-77-97-28-3 7-6 17-6 28h103" id="aF"/><path d="M117-194c89-4 53 116 60 194h-32v-121c0-31-8-49-39-48C34-167 62-67 57 0H25l-1-190h30c1 10-1 24 2 32 11-22 29-35 61-36" id="aG"/><path d="M114-163C36-179 61-72 57 0H25l-1-190h30c1 12-1 29 2 39 6-27 23-49 58-41v29" id="aH"/><g id="q"><use transform="matrix(0.05,0,0,0.05,0,0)" xlink:href="#aE"/><use transform="matrix(0.05,0,0,0.05,10,0)" xlink:href="#aF"/><use transform="matrix(0.05,0,0,0.05,20,0)" xlink:href="#aG"/><use transform="matrix(0.05,0,0,0.05,30,0)" xlink:href="#aH"/><use transform="matrix(0.05,0,0,0.05,35.95,0)" xlink:href="#aF"/></g><path d="M141-36C126-15 110 5 73 4 37 3 15-17 15-53c-1-64 63-63 125-63 3-35-9-54-41-54-24 1-41 7-42 31l-33-3c5-37 33-52 76-52 45 0 72 20 72 64v82c-1 20 7 32 28 27v20c-31 9-61-2-59-35zM48-53c0 20 12 33 32 33 41-3 63-29 60-74-43 2-92-5-92 41" id="aI"/><path d="M59-47c-2 24 18 29 38 22v24C64 9 27 4 27-40v-127H5v-23h24l9-43h21v43h35v23H59v120" id="aJ"/><path d="M24-231v-30h32v30H24zM24 0v-190h32V0H24" id="aK"/><path d="M-5 72V49h209v23H-5" id="aL"/><path d="M210-169c-67 3-38 105-44 169h-31v-121c0-29-5-50-35-48C34-165 62-65 56 0H25l-1-190h30c1 10-1 24 2 32 10-44 99-50 107 0 11-21 27-35 58-36 85-2 47 119 55 194h-31v-121c0-29-5-49-35-48" id="aM"/><path d="M115-194c55 1 70 41 70 98S169 2 115 4C84 4 66-9 55-30l1 105H24l-1-265h31l2 30c10-21 28-34 59-34zm-8 174c40 0 45-34 45-75s-6-73-45-74c-42 0-51 32-51 76 0 43 10 73 51 73" id="aN"/><g id="r"><use transform="matrix(0.05,0,0,0.05,0,0)" xlink:href="#aH"/><use transform="matrix(0.05,0,0,0.05,5.95,0)" xlink:href="#aI"/><use transform="matrix(0.05,0,0,0.05,15.949999999999998,0)" xlink:href="#aJ"/><use transform="matrix(0.05,0,0,0.05,20.95,0)" xlink:href="#aK"/><use transform="matrix(0.05,0,0,0.05,24.9,0)" xlink:href="#aG"/><use transform="matrix(0.05,0,0,0.05,34.9,0)" xlink:href="#aE"/><use transform="matrix(0.05,0,0,0.05,44.9,0)" xlink:href="#aL"/><use transform="matrix(0.05,0,0,0.05,54.900000000000006,0)" xlink:href="#aM"/><use transform="matrix(0.05,0,0,0.05,69.85,0)" xlink:href="#aN"/><use transform="matrix(0.05,0,0,0.05,79.85,0)" xlink:href="#aI"/></g><path fill="#333" d="M238-95c0 69-44 99-111 99C63 4 22-25 22-93v-155h51v151c-1 38 19 59 55 60 90 1 49-130 58-211h52v153" id="aO"/><path fill="#333" d="M137-138c1-29-70-34-71-4 15 46 118 7 119 86 1 83-164 76-172 9l43-7c4 19 20 25 44 25 33 8 57-30 24-41C81-84 22-81 20-136c-2-80 154-74 161-7" id="aP"/><path fill="#333" d="M185-48c-13 30-37 53-82 52C43 2 14-33 14-96s30-98 90-98c62 0 83 45 84 108H66c0 31 8 55 39 56 18 0 30-7 34-22zm-45-69c5-46-57-63-70-21-2 6-4 13-4 21h74" id="aQ"/><path fill="#333" d="M135-150c-39-12-60 13-60 57V0H25l-1-190h47c2 13-1 29 3 40 6-28 27-53 61-41v41" id="aR"/><g id="s"><use transform="matrix(0.06234567901234567,0,0,0.06234567901234567,0,0)" xlink:href="#aO"/><use transform="matrix(0.06234567901234567,0,0,0.06234567901234567,16.147530864197527,0)" xlink:href="#aP"/><use transform="matrix(0.06234567901234567,0,0,0.06234567901234567,28.61666666666666,0)" xlink:href="#aQ"/><use transform="matrix(0.06234567901234567,0,0,0.06234567901234567,41.08580246913579,0)" xlink:href="#aR"/></g><g id="t"><use transform="matrix(0.05,0,0,0.05,0,0)" xlink:href="#aD"/><use transform="matrix(0.05,0,0,0.05,10,0)" xlink:href="#aw"/><use transform="matrix(0.05,0,0,0.05,19,0)" xlink:href="#av"/><use transform="matrix(0.05,0,0,0.05,29,0)" xlink:href="#ay"/><use transform="matrix(0.05,0,0,0.05,34.95,0)" xlink:href="#as"/><use transform="matrix(0.05,0,0,0.05,44.95,0)" xlink:href="#ap"/><use transform="matrix(0.05,0,0,0.05,48.900000000000006,0)" xlink:href="#at"/></g><g id="u"><use transform="matrix(0.05,0,0,0.05,0,0)" xlink:href="#av"/><use transform="matrix(0.05,0,0,0.05,10,0)" xlink:href="#ar"/><use transform="matrix(0.05,0,0,0.05,24.950000000000003,0)" xlink:href="#aC"/><use transform="matrix(0.05,0,0,0.05,34.95,0)" xlink:href="#ap"/><use transform="matrix(0.05,0,0,0.05,38.900000000000006,0)" xlink:href="#aq"/></g><path fill="#333" d="M177-190C167-65 218 103 67 71c-23-6-38-20-44-43l32-5c15 47 100 32 89-28v-30C133-14 115 1 83 1 29 1 15-40 15-95c0-56 16-97 71-98 29-1 48 16 59 35 1-10 0-23 2-32h30zM94-22c36 0 50-32 50-73 0-42-14-75-50-75-39 0-46 34-46 75s6 73 46 73" id="aS"/><g id="v"><use transform="matrix(0.05,0,0,0.05,0,0)" xlink:href="#aq"/><use transform="matrix(0.05,0,0,0.05,3.95,0)" xlink:href="#aA"/><use transform="matrix(0.05,0,0,0.05,13.949999999999998,0)" xlink:href="#aS"/><use transform="matrix(0.05,0,0,0.05,23.95,0)" xlink:href="#ap"/><use transform="matrix(0.05,0,0,0.05,27.899999999999995,0)" xlink:href="#aB"/></g><g id="w"><use transform="matrix(0.05,0,0,0.05,0,0)" xlink:href="#aB"/><use transform="matrix(0.05,0,0,0.05,10,0)" xlink:href="#aC"/><use transform="matrix(0.05,0,0,0.05,20,0)" xlink:href="#ar"/><use transform="matrix(0.05,0,0,0.05,34.95,0)" xlink:href="#av"/></g><path fill="#333" d="M115-194c53 0 69 39 70 98 0 66-23 100-70 100C84 3 66-7 56-30L54 0H23l1-261h32v101c10-23 28-34 59-34zm-8 174c40 0 45-34 45-75 0-40-5-75-45-74-42 0-51 32-51 76 0 43 10 73 51 73" id="aT"/><path fill="#333" d="M106-169C34-169 62-67 57 0H25v-261h32l-1 103c12-21 28-36 61-36 89 0 53 116 60 194h-32v-121c2-32-8-49-39-48" id="aU"/><path fill="#333" d="M179-190L93 31C79 59 56 82 12 73V49c39 6 53-20 64-50L1-190h34L92-34l54-156h33" id="aV"/><g id="x"><use transform="matrix(0.05,0,0,0.05,0,0)" xlink:href="#aT"/><use transform="matrix(0.05,0,0,0.05,10,0)" xlink:href="#ap"/><use transform="matrix(0.05,0,0,0.05,13.949999999999998,0)" xlink:href="#au"/><use transform="matrix(0.05,0,0,0.05,18.95,0)" xlink:href="#aU"/><use transform="matrix(0.05,0,0,0.05,28.950000000000003,0)" xlink:href="#at"/><use transform="matrix(0.05,0,0,0.05,38.95,0)" xlink:href="#aC"/><use transform="matrix(0.05,0,0,0.05,48.95,0)" xlink:href="#aV"/></g><path fill="#333" d="M24 0v-248h52v208h133V0H24" id="aW"/><path fill="#333" d="M147 0L96-86 75-71V0H25v-261h50v150l67-79h53l-66 74L201 0h-54" id="aX"/><g id="y"><use transform="matrix(0.06234567901234567,0,0,0.06234567901234567,0,0)" xlink:href="#aW"/><use transform="matrix(0.06234567901234567,0,0,0.06234567901234567,13.653703703703702,0)" xlink:href="#aj"/><use transform="matrix(0.06234567901234567,0,0,0.06234567901234567,19.888271604938268,0)" xlink:href="#aX"/><use transform="matrix(0.06234567901234567,0,0,0.06234567901234567,32.3574074074074,0)" xlink:href="#aQ"/><use transform="matrix(0.06234567901234567,0,0,0.06234567901234567,44.82654320987653,0)" xlink:href="#aP"/></g><path fill="#333" d="M135-194c87-1 58 113 63 194h-50c-7-57 23-157-34-157-59 0-34 97-39 157H25l-1-190h47c2 12-1 28 3 38 12-26 28-41 61-42" id="aY"/><path fill="#333" d="M88-194c31-1 46 15 58 34l-1-101h50l1 261h-48c-2-10 0-23-3-31C134-8 116 4 84 4 32 4 16-41 15-95c0-56 19-97 73-99zm17 164c33 0 40-30 41-66 1-37-9-64-41-64s-38 30-39 65c0 43 13 65 39 65" id="aZ"/><g id="z"><use transform="matrix(0.06234567901234567,0,0,0.06234567901234567,0,0)" xlink:href="#ai"/><use transform="matrix(0.06234567901234567,0,0,0.06234567901234567,13.653703703703702,0)" xlink:href="#aR"/><use transform="matrix(0.06234567901234567,0,0,0.06234567901234567,22.382098765432097,0)" xlink:href="#aj"/><use transform="matrix(0.06234567901234567,0,0,0.06234567901234567,28.616666666666664,0)" xlink:href="#aQ"/><use transform="matrix(0.06234567901234567,0,0,0.06234567901234567,41.0858024691358,0)" xlink:href="#aY"/><use transform="matrix(0.06234567901234567,0,0,0.06234567901234567,54.7395061728395,0)" xlink:href="#aZ"/><use transform="matrix(0.06234567901234567,0,0,0.06234567901234567,68.3932098765432,0)" xlink:href="#aP"/></g><g id="A"><use transform="matrix(0.05,0,0,0.05,0,0)" xlink:href="#ao"/><use transform="matrix(0.05,0,0,0.05,5,0)" xlink:href="#ay"/><use transform="matrix(0.05,0,0,0.05,10.95,0)" xlink:href="#ap"/><use transform="matrix(0.05,0,0,0.05,14.899999999999999,0)" xlink:href="#av"/><use transform="matrix(0.05,0,0,0.05,24.9,0)" xlink:href="#aB"/><use transform="matrix(0.05,0,0,0.05,34.9,0)" xlink:href="#at"/><use transform="matrix(0.05,0,0,0.05,44.9,0)" xlink:href="#as"/><use transform="matrix(0.05,0,0,0.05,54.900000000000006,0)" xlink:href="#ap"/><use transform="matrix(0.05,0,0,0.05,58.85,0)" xlink:href="#at"/></g><path d="M101-234c-31-9-42 10-38 44h38v23H63V0H32v-167H5v-23h27c-7-52 17-82 69-68v24" id="ba"/><path d="M100-194c62-1 85 37 85 99 1 63-27 99-86 99S16-35 15-95c0-66 28-99 85-99zM99-20c44 1 53-31 53-75 0-43-8-75-51-75s-53 32-53 75 10 74 51 75" id="bb"/><path d="M108 0H70L1-190h34L89-25l56-165h34" id="bc"/><path d="M85-194c31 0 48 13 60 33l-1-100h32l1 261h-30c-2-10 0-23-3-31C134-8 116 4 85 4 32 4 16-35 15-94c0-66 23-100 70-100zm9 24c-40 0-46 34-46 75 0 40 6 74 45 74 42 0 51-32 51-76 0-42-9-74-50-73" id="bd"/><g id="B"><use transform="matrix(0.05,0,0,0.05,0,0)" xlink:href="#aK"/><use transform="matrix(0.05,0,0,0.05,3.95,0)" xlink:href="#ba"/><use transform="matrix(0.05,0,0,0.05,8.95,0)" xlink:href="#aL"/><use transform="matrix(0.05,0,0,0.05,18.95,0)" xlink:href="#aI"/><use transform="matrix(0.05,0,0,0.05,28.950000000000003,0)" xlink:href="#aN"/><use transform="matrix(0.05,0,0,0.05,38.95,0)" xlink:href="#aN"/><use transform="matrix(0.05,0,0,0.05,48.95,0)" xlink:href="#aH"/><use transform="matrix(0.05,0,0,0.05,54.900000000000006,0)" xlink:href="#bb"/><use transform="matrix(0.05,0,0,0.05,64.9,0)" xlink:href="#bc"/><use transform="matrix(0.05,0,0,0.05,73.9,0)" xlink:href="#aF"/><use transform="matrix(0.05,0,0,0.05,83.9,0)" xlink:href="#bd"/></g></defs></g></svg>